<svg id="Layer_1" enable-background="new 0 0 256 256" height="512" viewBox="0 0 256 256" width="512" xmlns="http://www.w3.org/2000/svg"><g><path d="m211.26 59.518c-20.233-20.233-53.036-20.233-73.269 0l-9.991 9.992-9.992-9.991c-20.233-20.233-53.036-20.233-73.269 0-20.233 20.232-20.233 53.036 0 73.269l9.991 9.991 65.785 65.785c4.133 4.133 10.835 4.133 14.969 0l65.785-65.785 9.991-9.991c20.233-20.233 20.233-53.037 0-73.27z" fill="#ff4a73"/><path d="m211.26 132.784-75.78 75.78c-4.13 4.13-10.83 4.13-14.96 0l-.02-.02 75.76-75.76c20.23-20.23 20.23-53.03 0-73.27-8.21-8.2-18.48-13.08-29.14-14.63 15.64-2.27 32.11 2.6 44.14 14.63 20.23 20.24 20.23 53.04 0 73.27z" fill="#ea2a6a"/><path d="m135.5 208.544-.02.02c-4.13 4.13-10.83 4.13-14.96 0l-75.78-75.78c-20.23-20.23-20.23-53.03 0-73.27 12.03-12.03 28.5-16.9 44.14-14.63-10.66 1.55-20.93 6.43-29.14 14.63-20.23 20.24-20.23 53.04 0 73.27z" fill="#f973a3"/><g fill="#5f266d"><path d="m174.626 40.344c-29.118 0-42.682 20.586-46.626 23.509-3.926-2.91-17.512-23.509-46.626-23.509-49.6 0-74.383 60.351-39.463 95.272l75.776 75.776c5.698 5.697 14.949 5.676 20.625 0l75.775-75.776c34.843-34.839 10.406-95.272-39.461-95.272zm33.806 89.615-75.775 75.775c-2.573 2.573-6.738 2.575-9.313 0l-75.776-75.776c-29.93-29.93-8.669-81.615 33.807-81.615 34.426 0 41.729 31.724 49.454 23.995 6.227-4.815 17.607-23.995 43.798-23.995 42.803.001 63.61 51.811 33.805 81.616z"/><path d="m191.845 109.509h-65.665l-8.284-11.242c-2.024-2.747-6.353-1.85-7.118 1.476l-5.103 22.166-9.356-34.244c-.986-3.613-5.99-4.008-7.516-.566l-9.512 21.462h-15.618c-1.379-2.349-3.925-3.93-6.845-3.93-4.386 0-7.941 3.555-7.941 7.941 0 4.385 3.555 7.941 7.941 7.941 2.93 0 5.482-1.591 6.858-3.951h18.208c1.582 0 3.016-.933 3.657-2.379l6.013-13.567 10.584 38.738c1.097 4.02 6.826 3.881 7.757-.157l6.716-29.174 4.318 5.86c.754 1.023 1.949 1.627 3.22 1.627h68.802c1.455 1.828 3.695 3.003 6.213 3.003 4.386 0 7.941-3.555 7.941-7.941-.002-8.642-11.935-11.032-15.27-3.063z"/><path d="m141.495 171.876-3.313 3.264c-1.573 1.55-1.592 4.083-.042 5.657.783.794 1.816 1.193 2.85 1.193 1.014 0 2.028-.383 2.808-1.15l3.313-3.264c1.573-1.55 1.592-4.083.042-5.657-1.552-1.576-4.084-1.594-5.658-.043z"/><path d="m165.715 148.013-13.534 13.334c-1.573 1.551-1.592 4.083-.042 5.657.783.795 1.816 1.193 2.85 1.193 1.014 0 2.028-.383 2.808-1.15l13.534-13.334c1.573-1.551 1.592-4.083.042-5.657-1.553-1.575-4.085-1.592-5.658-.043z"/><path d="m24.532 133.657-15.003-9.725c-1.854-1.202-4.331-.672-5.532 1.181-1.202 1.854-.673 4.331 1.181 5.532l15.003 9.725c1.837 1.192 4.321.688 5.532-1.181 1.202-1.854.673-4.331-1.181-5.532z"/><path d="m20.181 156.758-15.003 9.725c-1.854 1.202-2.383 3.678-1.181 5.532 1.205 1.86 3.684 2.379 5.532 1.181l15.003-9.725c1.854-1.202 2.383-3.678 1.181-5.532-1.201-1.853-3.679-2.383-5.532-1.181z"/><path d="m250.822 166.483-15.003-9.725c-1.854-1.203-4.331-.672-5.532 1.181-1.202 1.854-.673 4.331 1.181 5.532 15.369 9.7 15.083 10.369 17.175 10.369 3.96 0 5.523-5.189 2.179-7.357z"/><path d="m230.287 139.189c1.205 1.86 3.684 2.379 5.532 1.181l15.003-9.725c1.854-1.202 2.383-3.678 1.181-5.532-1.201-1.854-3.679-2.382-5.532-1.181l-15.003 9.725c-1.854 1.201-2.383 3.678-1.181 5.532z"/></g></g></svg>