<?xml version="1.0" encoding="utf-8"?>
<!-- Generator: Adobe Illustrator 22.1.0, SVG Export Plug-In . SVG Version: 6.00 Build 0)  -->
<svg xmlns="http://www.w3.org/2000/svg" xmlns:xlink="http://www.w3.org/1999/xlink" version="1.1" id="Layer_1" x="0px" y="0px" viewBox="0 0 512 512" style="enable-background:new 0 0 512 512;" xml:space="preserve" width="512" height="512">
<style type="text/css">
	.st0{fill:#FFA730;}
	.st1{fill:#E58D23;}
	.st2{fill:#BF6C0D;}
	.st3{fill:#A56021;}
	.st4{fill:#FFD551;}
	.st5{fill:#FFF4C1;}
	.st6{fill:#FFC34C;}
	.st7{fill:#FFEA63;}
	.st8{fill:#FCE575;}
	.st9{fill:#FFB74B;}
	.st10{fill:#8C4C17;}
	.st11{fill:#F9BB32;}
	.st12{fill:#FF4B34;}
	.st13{fill:#FF9079;}
	.st14{fill:#FFDF74;}
	.st15{fill:#FF624B;}
	.st16{fill:#CCC033;}
	.st17{fill:#EACF32;}
	.st18{fill:#FFEACF;}
	.st19{fill:#99AF17;}
	.st20{fill:#FFD59A;}
	.st21{fill:#FCDA4F;}
	.st22{fill:#FCF9DE;}
	.st23{fill:#DB9C2E;}
</style>
<g>
	<g>
		<g>
			<path class="st16" d="M448.013,468.796c3.731,0,6.98-2.575,7.805-6.213c1.714-7.564,2.607-15.324,2.607-23.233     c0-79.805-90.629-144.5-202.425-144.5S53.575,359.545,53.575,439.35c0,7.909,0.893,15.669,2.607,23.233     c0.824,3.638,4.074,6.213,7.805,6.213H448.013z"/>
		</g>
	</g>
	<g>
		<g>
			<path class="st19" d="M103.575,459.35c0-79.805,90.629-144.5,202.425-144.5c25.674,0,50.225,3.42,72.825,9.643     C344.76,305.902,302.191,294.85,256,294.85c-111.796,0-202.425,64.695-202.425,144.5c0,7.909,0.893,15.669,2.607,23.233     c0.824,3.638,4.074,6.213,7.805,6.213h40.021C103.725,465.673,103.575,462.524,103.575,459.35z"/>
		</g>
	</g>
	<g>
		<g>
			<path class="st14" d="M84.463,190.285c-2.355,0-4.475-1.489-5.276-3.704l-1.34-3.709c-1.051-2.91,0.46-6.133,3.37-7.184     l96.135-34.738l4.318,11.95l-8.292,5.109l-33.762,20.421c-3.259,1.971-6.813,3.31-10.562,3.98l-43.604,7.788     C85.125,190.255,84.793,190.285,84.463,190.285C84.463,190.285,84.463,190.285,84.463,190.285z"/>
		</g>
	</g>
	<g>
		<g>
			<path class="st4" d="M97.818,186.58l-1.34-3.709c-1.051-2.91,0.46-6.133,3.37-7.184l79.656-28.783l-2.152-5.955l-96.135,34.738     c-2.91,1.051-4.422,4.274-3.37,7.184l1.34,3.709c0.801,2.216,2.921,3.704,5.276,3.704c0,0,0,0,0.001,0     c0.329,0,0.662-0.03,0.987-0.088l13.049-2.33C98.224,187.472,97.986,187.047,97.818,186.58z"/>
		</g>
	</g>
	<g>
		<g>
			<path class="st4" d="M151.653,150.236c0.751,6.432,4.737,11.887,10.285,14.693l11.441-6.92l8.292-5.109l-4.318-11.951     L151.653,150.236z"/>
		</g>
	</g>
	<g>
		<g>
			<path class="st14" d="M266.279,196.821c-0.828,0-1.629-0.179-2.381-0.532l-92.542-43.415l5.397-11.504l9.476,2.251l38.313,9.433     c3.698,0.911,7.157,2.477,10.283,4.654l36.339,25.326c2.249,1.567,3.036,4.505,1.872,6.987l-1.675,3.57     C270.441,195.553,268.446,196.821,266.279,196.821L266.279,196.821z"/>
		</g>
	</g>
	<g>
		<g>
			<path class="st4" d="M201.805,148.027c0-0.193-0.009-0.383-0.015-0.574l-15.561-3.831l-9.476-2.251l-5.397,11.503l22.503,10.557     C198.664,159.994,201.805,154.372,201.805,148.027z"/>
		</g>
	</g>
	<g>
		<g>
			<path class="st14" d="M171.646,151.034l-1.987-9.535l-7.732-38.692c-0.747-3.735-0.798-7.532-0.153-11.286l7.494-43.655     c0.463-2.701,2.789-4.662,5.53-4.662h3.943c3.094,0,5.612,2.517,5.612,5.611v102.219H171.646z"/>
		</g>
	</g>
	<g>
		<g>
			<path class="st4" d="M174.348,102.807c-0.746-3.735-0.798-7.532-0.153-11.286l7.494-43.655c0.179-1.042,0.637-1.971,1.286-2.723     c-1.03-1.185-2.544-1.939-4.233-1.939h-3.943c-2.741,0-5.067,1.961-5.53,4.662l-7.494,43.655     c-0.645,3.754-0.593,7.551,0.153,11.286l7.732,38.692l1.987,9.535h12.42l-1.987-9.535L174.348,102.807z"/>
		</g>
	</g>
	<g>
		<g>
			<polygon class="st0" points="162.3,305.425 191.189,305.425 183.657,148.014 169.832,148.014    "/>
		</g>
	</g>
	<g>
		<g>
			<polygon class="st1" points="169.832,148.014 162.3,305.425 174.72,305.425 182.253,148.014    "/>
		</g>
	</g>
	<g>
		<g>
			<path class="st7" d="M176.662,166.96c-10.439,0-18.932-8.493-18.932-18.932s8.493-18.932,18.932-18.932     s18.933,8.493,18.933,18.932S187.101,166.96,176.662,166.96z"/>
		</g>
	</g>
	<g>
		<g>
			<path class="st9" d="M176.662,159.939c-6.568,0-11.912-5.344-11.912-11.912c0-6.568,5.343-11.912,11.912-11.912     c6.568,0,11.912,5.344,11.912,11.912C188.574,154.596,183.23,159.939,176.662,159.939z"/>
		</g>
	</g>
	<g>
		<g>
			<path class="st11" d="M196.483,327.077h-39.478c-4.418,0-8-3.582-8-8v-5.898c0-4.418,3.582-8,8-8h39.478c4.418,0,8,3.582,8,8     v5.898C204.483,323.495,200.902,327.077,196.483,327.077z"/>
		</g>
	</g>
	<g>
		<g>
			<path class="st0" d="M171.581,148.027c0-5.381,3.588-9.935,8.496-11.407c-1.083-0.325-2.228-0.505-3.416-0.505     c-6.568,0-11.912,5.344-11.912,11.912c0,6.568,5.343,11.912,11.912,11.912c1.187,0,2.333-0.18,3.416-0.505     C175.17,157.962,171.581,153.408,171.581,148.027z"/>
		</g>
	</g>
	<g>
		<g>
			<path class="st23" d="M173.847,318.841c0-2.744,2.224-4.968,4.968-4.968h25.669v-3.726c0-2.744-2.224-4.968-4.968-4.968h-45.541     c-2.744,0-4.968,2.224-4.968,4.968v11.961c0,2.744,2.224,4.968,4.968,4.968h19.873V318.841z"/>
		</g>
	</g>
	<g>
		<g>
			<path class="st9" d="M183.109,303.15c-3.286,0-5.966-2.648-5.998-5.942l-0.286-29.381c-0.033-3.313,2.627-6.026,5.941-6.058     c3.272-0.044,6.026,2.628,6.058,5.941l0.286,29.381c0.033,3.313-2.627,6.026-5.941,6.058     C183.149,303.15,183.129,303.15,183.109,303.15z"/>
		</g>
	</g>
	<g>
		<g>
			<circle class="st4" cx="109.949" cy="178.921" r="4.658"/>
		</g>
	</g>
	<g>
		<g>
			<circle class="st0" cx="180.078" cy="145.308" r="4.658"/>
		</g>
	</g>
	<g>
		<g>
			<path class="st5" d="M265.249,190.134c-0.686,0-1.381-0.177-2.017-0.548l-20.286-11.87c-1.907-1.116-2.548-3.566-1.433-5.472     c1.115-1.906,3.565-2.548,5.473-1.432l20.287,11.87c1.906,1.116,2.548,3.566,1.432,5.472     C267.961,189.425,266.623,190.134,265.249,190.134z"/>
		</g>
	</g>
	<g>
		<g>
			<path class="st14" d="M204.12,230.444c-2.912,0-5.535-1.841-6.525-4.582l-1.657-4.587c-1.3-3.599,0.57-7.585,4.169-8.886     l118.908-42.967l5.341,14.781l-10.256,6.319l-41.759,25.258c-4.031,2.438-8.427,4.095-13.064,4.923l-53.933,9.632     C204.939,230.408,204.528,230.444,204.12,230.444C204.12,230.444,204.12,230.444,204.12,230.444z"/>
		</g>
	</g>
	<g>
		<g>
			<path class="st4" d="M220.638,225.862l-1.657-4.587c-1.3-3.599,0.57-7.585,4.169-8.886l98.525-35.602l-2.661-7.365     l-118.908,42.967c-3.599,1.301-5.469,5.287-4.169,8.886l1.657,4.587c0.99,2.74,3.613,4.582,6.525,4.582c0,0,0,0,0.001,0     c0.408,0,0.819-0.037,1.221-0.108l16.14-2.883C221.141,226.965,220.847,226.439,220.638,225.862z"/>
		</g>
	</g>
	<g>
		<g>
			<path class="st4" d="M287.225,180.909c0.929,7.956,5.859,14.703,12.721,18.173l14.152-8.56l10.256-6.319l-5.341-14.781     L287.225,180.909z"/>
		</g>
	</g>
	<g>
		<g>
			<path class="st14" d="M429.005,238.528c-1.024,0-2.015-0.221-2.945-0.658l-114.463-53.699l6.676-14.228l11.72,2.784     l47.389,11.668c4.574,1.126,8.853,3.063,12.718,5.757l44.947,31.325c2.782,1.938,3.755,5.572,2.315,8.642l-2.071,4.415     C434.153,236.961,431.685,238.528,429.005,238.528L429.005,238.528z"/>
		</g>
	</g>
	<g>
		<g>
			<path class="st4" d="M349.257,178.177c0-0.238-0.011-0.474-0.018-0.71l-19.247-4.739l-11.72-2.784l-6.676,14.228l27.833,13.058     C345.373,192.978,349.257,186.025,349.257,178.177z"/>
		</g>
	</g>
	<g>
		<g>
			<path class="st14" d="M311.955,181.896l-2.458-11.794l-9.563-47.858c-0.923-4.62-0.987-9.317-0.19-13.96l9.269-53.996     c0.573-3.341,3.45-5.766,6.841-5.766h4.877c3.827,0,6.941,3.114,6.941,6.941v126.433H311.955z"/>
		</g>
	</g>
	<g>
		<g>
			<path class="st4" d="M315.297,122.245c-0.923-4.62-0.987-9.317-0.19-13.96l9.269-53.996c0.221-1.288,0.787-2.438,1.591-3.368     c-1.274-1.466-3.146-2.399-5.236-2.399h-4.877c-3.39,0-6.267,2.425-6.841,5.766l-9.269,53.996     c-0.798,4.643-0.734,9.34,0.19,13.96l9.563,47.857l2.458,11.794h15.363l-2.458-11.794L315.297,122.245z"/>
		</g>
	</g>
	<g>
		<g>
			<polygon class="st0" points="300.395,372.858 336.127,372.858 326.811,178.16 309.712,178.16    "/>
		</g>
	</g>
	<g>
		<g>
			<polygon class="st1" points="309.711,178.16 300.395,372.858 315.757,372.858 325.074,178.16    "/>
		</g>
	</g>
	<g>
		<g>
			<path class="st7" d="M318.159,201.594c-12.912,0-23.417-10.505-23.417-23.417c0-12.912,10.505-23.417,23.417-23.417     c12.912,0,23.417,10.505,23.417,23.417C341.576,191.089,331.071,201.594,318.159,201.594z"/>
		</g>
	</g>
	<g>
		<g>
			<path class="st9" d="M318.159,192.91c-8.124,0-14.733-6.609-14.733-14.734s6.609-14.734,14.733-14.734     c8.124,0,14.734,6.61,14.734,14.734S326.283,192.91,318.159,192.91z"/>
		</g>
	</g>
	<g>
		<g>
			<path class="st11" d="M344.571,399.639h-52.619c-4.418,0-8-3.582-8-8v-11.085c0-4.418,3.582-8,8-8h52.619c4.418,0,8,3.582,8,8     v11.085C352.571,396.057,348.989,399.639,344.571,399.639z"/>
		</g>
	</g>
	<g>
		<g>
			<path class="st0" d="M311.875,178.177c0-6.656,4.438-12.288,10.509-14.109c-1.34-0.402-2.756-0.624-4.225-0.624     c-8.124,0-14.733,6.609-14.733,14.734c0,8.124,6.609,14.733,14.733,14.733c1.469,0,2.885-0.222,4.225-0.624     C316.313,190.465,311.875,184.832,311.875,178.177z"/>
		</g>
	</g>
	<g>
		<g>
			<path class="st23" d="M314.677,389.453c0-3.394,2.751-6.145,6.145-6.145h31.749v-4.609c0-3.394-2.751-6.145-6.145-6.145h-56.329     c-3.394,0-6.145,2.751-6.145,6.145v14.795c0,3.394,2.751,6.145,6.145,6.145h24.58V389.453z"/>
		</g>
	</g>
	<g>
		<g>
			<path class="st9" d="M326.135,368.624c-3.287,0-5.967-2.648-5.999-5.941l-0.354-36.341c-0.032-3.314,2.628-6.026,5.941-6.058     c0.02,0,0.04,0,0.06,0c3.287,0,5.967,2.648,5.999,5.941l0.354,36.341c0.032,3.313-2.628,6.026-5.941,6.058     C326.175,368.624,326.154,368.624,326.135,368.624z"/>
		</g>
	</g>
	<g>
		<g>
			<circle class="st4" cx="235.643" cy="216.389" r="5.761"/>
		</g>
	</g>
	<g>
		<g>
			<circle class="st0" cx="322.384" cy="174.813" r="5.761"/>
		</g>
	</g>
	<g>
		<g>
			<path class="st5" d="M427.731,229.31c-0.687,0-1.381-0.177-2.017-0.548l-25.092-14.682c-1.906-1.116-2.548-3.566-1.432-5.472     c1.116-1.907,3.565-2.547,5.473-1.432l25.092,14.682c1.906,1.116,2.548,3.566,1.432,5.472     C430.443,228.601,429.105,229.31,427.731,229.31z"/>
		</g>
	</g>
	<g>
		<g>
			<path class="st21" d="M439.691,435.796c-3.152,0-5.796-2.459-5.983-5.647c-2.76-46.917-47.391-71.411-47.842-71.652     c-2.916-1.566-4.017-5.2-2.455-8.119c1.561-2.918,5.187-4.024,8.108-2.466c2.082,1.109,51.006,27.791,54.167,81.532     c0.195,3.308-2.329,6.147-5.637,6.342C439.93,435.793,439.811,435.796,439.691,435.796z"/>
		</g>
	</g>
	<g>
		<g>
			<circle class="st19" cx="151.653" cy="399.639" r="15"/>
		</g>
	</g>
	<g>
		<g>
			<circle class="st19" cx="176.662" cy="429.796" r="15"/>
		</g>
	</g>
</g>
</svg>
